Coordinates
version=1
nRows=21
nColumns=22
inDegrees=yes

Units are S.I. units (second, meters, Newtons, ...)
If the header above contains a line with 'inDegrees', this indicates whether rotational values are in degrees (yes) or radians (no).

endheader
time	pelvis_tilt	pelvis_list	pelvis_rotation	pelvis_tx	pelvis_ty	pelvis_tz	hip_flexion_r	hip_adduction_r	hip_rotation_r	knee_angle_r	ankle_angle_r	subtalar_angle_r	hip_flexion_l	hip_adduction_l	hip_rotation_l	knee_angle_l	ankle_angle_l	subtalar_angle_l	lumbar_extension	lumbar_bending	lumbar_rotation
      0.01000000	      4.73832283	     -2.60224330	      5.75615375	      1.13659297	      0.94285810	     -0.09117423	     -7.88217822	      4.62804301	    -10.01805123	     -7.36447603	     10.74698011	      0.50422436	     -4.33346960	     -3.16697901	    -11.55556310	    -14.55508164	     21.06143302	     -5.52959367	    -10.87825113	      2.93053069	     -8.65542368
      0.02000000	      4.73543920	     -2.61191324	      5.77665242	      1.13661188	      0.94285292	     -0.09120444	     -7.88059541	      4.64119806	    -10.02599360	     -7.36446813	     10.76461103	      0.50508496	     -4.32512836	     -3.17961671	    -11.53014041	    -14.55995684	     21.04313975	     -5.53178420	    -10.87632257	      2.94846040	     -8.70841910
      0.03000000	      4.73261082	     -2.61284014	      5.78781434	      1.13664849	      0.94285031	     -0.09121854	     -7.87938207	      4.64393653	    -10.02916307	     -7.36726859	     10.76462714	      0.50533836	     -4.32390178	     -3.18222961	    -11.52826928	    -14.55752483	     21.04406287	     -5.53157907	    -10.87544554	      2.94867108	     -8.71683244
      0.04000000	      4.72679527	     -2.62077289	      5.80053865	      1.13668829	      0.94284140	     -0.09125574	     -7.87083685	      4.65138358	    -10.04335051	     -7.37710122	     10.76430916	      0.50707103	     -4.31994220	     -3.19051464	    -11.51830448	    -14.55332861	     21.04778699	     -5.53028565	    -10.86906920	      2.96642849	     -8.77417034
      0.05000000	      4.71420189	     -2.62907960	      5.82517251	      1.13671966	      0.94281856	     -0.09130788	     -7.85766853	      4.66063621	    -10.07640789	     -7.38033917	     10.76321144	      0.51182295	     -4.29851202	     -3.20058478	    -11.49434184	    -14.56419251	     21.05626334	     -5.52748535	    -10.85632295	      2.98282035	     -8.83905744
      0.06000000	      4.71169194	     -2.62997930	      5.82524158	      1.13676275	      0.94281665	     -0.09132660	     -7.85786496	      4.66034944	    -10.07663888	     -7.38050693	     10.76319195	      0.51186870	     -4.29887149	     -3.20057685	    -11.49421168	    -14.56455895	     21.05633388	     -5.52746831	    -10.85732001	      2.98276635	     -8.83958326
      0.07000000	      4.67008407	     -2.64128364	      5.86946166	      1.13676465	      0.94274483	     -0.09142494	     -7.80867828	      4.67026851	    -10.14248274	     -7.38852324	     10.76239930	      0.52682568	     -4.22557737	     -3.21336068	    -11.45069875	    -14.60471150	     21.07635532	     -5.52363084	    -10.81264688	      3.00506277	     -8.94208156
      0.08000000	      4.66088136	     -2.64495873	      5.86609980	      1.13679322	      0.94272963	     -0.09145810	     -7.79232879	      4.66903188	    -10.13916078	     -7.40473653	     10.76254756	      0.52930800	     -4.22022078	     -3.21412336	    -11.45745043	    -14.59932674	     21.07947011	     -5.52426658	    -10.80727316	      3.01435002	     -8.97526044
      0.09000000	      4.64391322	     -2.64902770	      5.87169559	      1.13680208	      0.94270155	     -0.09149901	     -7.76760809	      4.66972992	    -10.14301088	     -7.41799036	     10.76792231	      0.53319128	     -4.19733612	     -3.21622027	    -11.45745430	    -14.60626211	     21.08429102	     -5.52510116	    -10.79551758	      3.02096131	     -9.02321429
      0.10000000	      4.63899788	     -2.65052830	      5.86555237	      1.13681978	      0.94269008	     -0.09154599	     -7.76316632	      4.66631895	    -10.14461869	     -7.41738357	     10.76898446	      0.53347012	     -4.19368017	     -3.21248056	    -11.45587638	    -14.60802197	     21.08511263	     -5.52503057	    -10.79765646	      3.02910550	     -9.03043600
      0.11000000	      4.58876198	     -2.66047882	      5.88668273	      1.13680404	      0.94259968	     -0.09162284	     -7.69318044	      4.66955232	    -10.16815054	     -7.44669398	     10.79780983	      0.53724521	     -4.12327567	     -3.21611521	    -11.41716577	    -14.62851618	     21.10114160	     -5.53084244	    -10.74400211	      3.04349236	     -9.09766379
      0.12000000	      4.58388210	     -2.66417074	      5.87989443	      1.13679583	      0.94257798	     -0.09166554	     -7.68595906	      4.66877132	    -10.16707660	     -7.44724452	     10.79761586	      0.53708006	     -4.12234453	     -3.21298230	    -11.41864323	    -14.62144684	     21.10206561	     -5.53131367	    -10.75141473	      3.04974572	     -9.10555861
      0.13000000	      4.57377881	     -2.67747476	      5.87035673	      1.13681118	      0.94254221	     -0.09171563	     -7.66338101	      4.67590221	    -10.14912927	     -7.46958063	     10.79901806	      0.53614611	     -4.13766055	     -3.21356981	    -11.41514567	    -14.57292839	     21.10798236	     -5.53439172	    -10.74238683	      3.07089254	     -9.13995180
      0.14000000	      4.55694842	     -2.69520323	      5.85996495	      1.13682128	      0.94248938	     -0.09175818	     -7.64009188	      4.68890789	    -10.13112346	     -7.47612445	     10.80504771	      0.53464789	     -4.15654727	     -3.21321142	    -11.38864929	    -14.50039760	     21.11520291	     -5.54022260	    -10.72801671	      3.09205242	     -9.15109605
      0.15000000	      4.53993907	     -2.71716064	      5.84969175	      1.13683500	      0.94243096	     -0.09179922	     -7.61795973	      4.70631346	    -10.11103524	     -7.47903278	     10.81026121	      0.53213791	     -4.18508398	     -3.21450972	    -11.35532049	    -14.40906737	     21.12101468	     -5.54887472	    -10.71270105	      3.11617569	     -9.16058964
      0.16000000	      4.52397817	     -2.74227128	      5.84085068	      1.13685066	      0.94237175	     -0.09183370	     -7.59790851	      4.72857198	    -10.09203753	     -7.47981725	     10.81367891	      0.52867945	     -4.22030997	     -3.21859217	    -11.32002372	    -14.30610057	     21.12531835	     -5.55917857	    -10.69811709	      3.14142517	     -9.16711202
      0.17000000	      4.53195230	     -2.74526284	      5.82659536	      1.13687196	      0.94236634	     -0.09186153	     -7.61881774	      4.73108857	    -10.05427846	     -7.45669921	     10.80363879	      0.50912152	     -4.30410150	     -3.19153254	    -11.23419482	    -14.16379439	     21.10198255	     -5.63624134	    -10.71675172	      3.13894772	     -9.16634871
      0.18000000	      4.51917021	     -2.77560217	      5.81760953	      1.13687567	      0.94231585	     -0.09188370	     -7.59914460	      4.75913776	    -10.05586944	     -7.46135058	     10.80659486	      0.50721435	     -4.32832567	     -3.20854973	    -11.22879829	    -14.08725189	     21.10862449	     -5.64188055	    -10.70892441	      3.16766676	     -9.17305296
      0.19000000	      4.50745904	     -2.79935268	      5.80483907	      1.13686771	      0.94227871	     -0.09190272	     -7.58143174	      4.77954349	    -10.05067268	     -7.46390947	     10.80358512	      0.50496160	     -4.34863327	     -3.21883845	    -11.21182776	    -14.02141670	     21.11353061	     -5.64757798	    -10.70612899	      3.18657940	     -9.17436900
      0.20000000	      4.50094713	     -2.80666989	      5.79757948	      1.13683073	      0.94225743	     -0.09192446	     -7.57365440	      4.78427408	    -10.05205860	     -7.45834376	     10.80309655	      0.50476728	     -4.34637794	     -3.22022930	    -11.21077338	    -14.01002240	     21.11387524	     -5.64844081	    -10.71878291	      3.18320161	     -9.17702786
      0.21000000	      4.49135688	     -2.82577499	      5.78212677	      1.13683384	      0.94223920	     -0.09195585	     -7.55797345	      4.79840439	    -10.04630911	     -7.46481718	     10.79432349	      0.50327069	     -4.36197763	     -3.22881632	    -11.20851271	    -13.96087737	     21.11342778	     -5.65442274	    -10.71676233	      3.19933698	     -9.18699170
